<svg width="58" height="58" viewBox="0 0 58 58" fill="none" xmlns="http://www.w3.org/2000/svg">
<path d="M58 29C58 45.0272 45.0093 58 29 58C12.9907 58 0 45.0093 0 29C0 12.9907 12.9907 0 29 0C45.0272 0 58 12.9907 58 29Z" fill="#23B909"/>
<path fill-rule="evenodd" clip-rule="evenodd" d="M39.0708 16H19.9185C17.2077 16 15 18.217 15 20.9185V32.8235C15 35.5342 17.217 37.742 19.9185 37.742H26.6814L27.8458 39.7541L28.9916 41.7382C29.1966 42.1015 29.7182 42.1015 29.9325 41.7382L31.0783 39.7541L32.2427 37.742H39.0801C41.7909 37.742 43.9986 35.5249 43.9986 32.8235V20.9278C43.9986 18.217 41.7816 16 39.0708 16ZM30.836 24.7191C29.3548 24.7191 28.1532 25.9022 28.1532 27.3647C28.1532 28.8272 29.3548 30.0103 30.836 30.0103C32.3171 30.0103 33.5188 28.8272 33.5188 27.3647C33.5188 25.9022 32.3264 24.7191 30.836 24.7191ZM30.836 28.6316C30.128 28.6316 29.5504 28.0633 29.5504 27.3647C29.5504 26.666 30.128 26.0978 30.836 26.0978C31.5439 26.0978 32.1215 26.666 32.1215 27.3647C32.1215 28.0633 31.5532 28.6316 30.836 28.6316ZM20.8127 25.3246C21.2319 24.9427 21.7722 24.7191 22.3497 24.7191C23.6912 24.7191 24.7624 25.9115 24.7624 27.374C24.7624 28.8365 23.6818 30.0196 22.3497 30.0196C21.7629 30.0196 21.2319 29.7867 20.8127 29.4141V29.8892H19.3223V23.1355H20.8127V25.3246ZM20.822 27.8864C21.027 28.3614 21.5021 28.6875 22.0517 28.6875C22.7969 28.6875 23.3931 28.1006 23.3931 27.3647C23.3931 26.6288 22.7969 26.0419 22.0517 26.0419C21.5021 26.0419 21.027 26.368 20.822 26.843C20.7475 27.0014 20.7102 27.1784 20.7102 27.3647C20.7102 27.551 20.7568 27.728 20.822 27.8864ZM38.1672 24.831V25.2501C37.748 24.9241 37.2263 24.7285 36.6674 24.7285C35.2981 24.7285 34.1895 25.8743 34.1895 27.2809C34.1895 28.6875 35.2981 29.8333 36.6674 29.8333C37.2356 29.8333 37.7573 29.6377 38.1672 29.3116V30.0196C38.1672 30.0196 38.0181 30.7182 36.9748 30.7182V32.0317C36.9748 32.0317 38.102 32.1621 39.108 31.1561C39.108 31.1561 39.5738 30.6623 39.6763 30.0103V24.831H38.1672ZM36.9469 28.5757C36.1923 28.5757 35.5868 27.9889 35.5868 27.2716C35.5868 26.5543 36.2016 25.9674 36.9469 25.9674C37.4778 25.9674 37.9436 26.2655 38.1672 26.694C38.2603 26.871 38.3069 27.0666 38.3069 27.2716C38.3069 27.4765 38.251 27.6814 38.1672 27.8491C37.9436 28.2869 37.4778 28.5757 36.9469 28.5757ZM24.9301 24.3559V23.0051C24.9301 23.0051 25.9176 22.8747 26.7932 23.9087C26.7932 23.9087 27.1938 24.4118 27.2869 25.0825V25.1197V29.8891H25.7499V25.1197C25.6195 24.449 24.9301 24.3559 24.9301 24.3559Z" fill="white"/>
</svg>
