<svg width="58" height="58" viewBox="0 0 58 58" fill="none" xmlns="http://www.w3.org/2000/svg">
<path d="M58 29C58 45.0272 45.0093 58 29 58C12.9907 58 0 45.0093 0 29C0 12.9907 12.9907 0 29 0C45.0272 0 58 12.9907 58 29Z" fill="#3C5A99"/>
<path d="M30.7291 40.6V30.0255H34.1459L34.6552 25.9015H30.7291V23.2662C30.7291 22.0753 31.0475 21.2593 32.6922 21.2593H34.7931V17.5654C34.4324 17.5213 33.1802 17.4 31.7265 17.4C28.7024 17.4 26.6226 19.3187 26.6226 22.8472V25.8905H23.1953V30.0145H26.6226V40.589H30.7291V40.6Z" fill="white"/>
</svg>
