<svg width="25" height="23" viewBox="0 0 25 23" fill="none" xmlns="http://www.w3.org/2000/svg">
<path d="M12.5 0C5.59641 0 0 4.39925 0 9.82584C0 13.3342 2.33969 16.4127 5.85914 18.1511C5.66766 18.8094 4.62875 22.3862 4.58734 22.6673C4.58734 22.6673 4.5625 22.8783 4.69961 22.9589C4.8368 23.0394 4.99805 22.9769 4.99805 22.9769C5.39133 22.9221 9.55852 20.0038 10.2798 19.4971C11.0004 19.5988 11.7423 19.6517 12.5 19.6517C19.4036 19.6517 25 15.2526 25 9.82584C25 4.39925 19.4036 0 12.5 0Z" fill="#381F1F"/>
<path fill-rule="evenodd" clip-rule="evenodd" d="M5.54798 13.0409C5.15788 13.0409 4.84066 12.7379 4.84066 12.3654V8.16346H3.73703C3.35429 8.16346 3.04297 7.85267 3.04297 7.47085C3.04297 7.08903 3.35437 6.77832 3.73703 6.77832H7.35892C7.74166 6.77832 8.05299 7.08903 8.05299 7.47085C8.05299 7.85267 7.74159 8.16346 7.35892 8.16346H6.2553V12.3654C6.2553 12.7379 5.93807 13.0409 5.54798 13.0409ZM11.75 13.0317C11.4551 13.0317 11.2295 12.912 11.1615 12.7193L10.8112 11.8025L8.65438 11.8023L8.30398 12.7198C8.23617 12.9121 8.01066 13.0317 7.71573 13.0317C7.56057 13.0319 7.40717 12.9986 7.2661 12.9341C7.07109 12.8442 6.88367 12.5968 7.09845 11.9297L8.79032 7.47654C8.90954 7.13786 9.27152 6.78891 9.73226 6.77842C10.1942 6.78884 10.5562 7.13786 10.6757 7.47723L12.3668 11.9284C12.5821 12.5971 12.3947 12.8446 12.1996 12.9342C12.0585 12.9986 11.9052 13.0318 11.75 13.0317ZM9.73277 8.54257L10.4392 10.5495H9.02629L9.73277 8.54257ZM13.5052 12.9378C13.1314 12.9378 12.8274 12.6468 12.8274 12.2894V7.48564C12.8274 7.09555 13.1513 6.77832 13.5495 6.77832C13.9475 6.77832 14.2715 7.09555 14.2715 7.48564V11.641H15.7745C16.1483 11.641 16.4524 11.9319 16.4524 12.2894C16.4524 12.6468 16.1483 12.9378 15.7745 12.9378H13.5052ZM16.7273 12.3244C16.7273 12.7145 17.0445 13.0317 17.4346 13.0317C17.6222 13.0314 17.802 12.9568 17.9347 12.8242C18.0673 12.6915 18.1419 12.5117 18.1422 12.324V10.7808L18.3876 10.5354L20.0464 12.7332C20.112 12.8209 20.1973 12.892 20.2955 12.9409C20.3936 12.9897 20.5017 13.0149 20.6113 13.0144C20.765 13.0147 20.9145 12.9646 21.0368 12.8716C21.1111 12.8159 21.1737 12.746 21.2208 12.6659C21.2678 12.5858 21.2986 12.4972 21.3112 12.4052C21.3245 12.3131 21.3193 12.2195 21.2959 12.1295C21.2726 12.0396 21.2317 11.9552 21.1754 11.8811L19.4344 9.57466L21.0462 7.96301C21.157 7.85214 21.2126 7.69919 21.2023 7.53238C21.1921 7.36703 21.1183 7.2078 20.9944 7.08398C20.8615 6.95126 20.6842 6.8751 20.5076 6.8751C20.3562 6.8751 20.2168 6.93096 20.1153 7.03248L18.1419 9.00587V7.48564C18.1419 7.09555 17.8247 6.77832 17.4346 6.77832C17.0445 6.77832 16.7273 7.09555 16.7273 7.48564V12.3244Z" fill="#FFE812"/>
</svg>
