<svg width="58" height="58" viewBox="0 0 58 58" fill="none" xmlns="http://www.w3.org/2000/svg">
<path d="M58 29C58 45.0272 45.0093 58 29 58C12.9907 58 0 45.0093 0 29C0 12.9907 12.9907 0 29 0C45.0272 0 58 12.9907 58 29Z" fill="#23B909"/>
<path d="M19.0527 19.8857H25.9692C25.9692 19.8857 32.2518 29.7279 32.4408 29.9886C32.6298 30.2493 32.6521 29.9886 32.6521 29.9886C32.363 28.4677 32.0516 27.7833 32.0516 25.35V19.8857H38.9347V38.1143H32.0516C32.0516 38.1143 25.9024 28.7936 25.7134 28.5438C25.5355 28.2831 25.5021 28.5438 25.5021 28.5438C25.7356 29.8039 25.9469 30.0103 25.9469 32.1938V38.1143H19.0638V19.8857H19.0527Z" fill="white"/>
</svg>
