<svg width="101" height="101" viewBox="0 0 101 101" fill="none" xmlns="http://www.w3.org/2000/svg">
<path d="M50.5 101C78.3904 101 101 78.3904 101 50.5C101 22.6096 78.3904 0 50.5 0C22.6096 0 0 22.6096 0 50.5C0 78.3904 22.6096 101 50.5 101Z" fill="#F1F1F1"/>
<path d="M50.9999 33.2084C39.586 33.2084 30.3333 40.504 30.3333 49.5033C30.3333 55.3215 34.2015 60.4268 40.0204 63.3096C39.7038 64.4013 37.9861 70.3331 37.9177 70.7991C37.9177 70.7991 37.8766 71.1491 38.1033 71.2827C38.3301 71.4163 38.5967 71.3125 38.5967 71.3125C39.2469 71.2217 46.1367 66.3821 47.3293 65.5418C48.5206 65.7105 49.7473 65.7982 50.9999 65.7982C62.4139 65.7982 71.6666 58.5028 71.6666 49.5033C71.6666 40.504 62.4139 33.2084 50.9999 33.2084Z" fill="#381F1F"/>
<path fill-rule="evenodd" clip-rule="evenodd" d="M39.5735 55.1917C38.916 55.1917 38.3812 54.681 38.3812 54.053V46.9697H36.5208C35.8756 46.9697 35.3508 46.4458 35.3508 45.8022C35.3508 45.1585 35.8758 44.6348 36.5208 44.6348H42.6263C43.2715 44.6348 43.7963 45.1585 43.7963 45.8022C43.7963 46.4458 43.2713 46.9697 42.6263 46.9697H40.7659V54.053C40.7659 54.681 40.2311 55.1917 39.5735 55.1917ZM50.0284 55.1762C49.5313 55.1762 49.151 54.9743 49.0363 54.6496L48.4459 53.104L44.8101 53.1037L44.2194 54.6504C44.1051 54.9744 43.725 55.1762 43.2278 55.1762C42.9662 55.1764 42.7076 55.1203 42.4699 55.0116C42.1411 54.86 41.8252 54.443 42.1872 53.3185L45.0392 45.8117C45.2402 45.2408 45.8504 44.6526 46.6271 44.6349C47.4058 44.6525 48.016 45.2408 48.2174 45.8129L51.0682 53.3163C51.431 54.4434 51.1151 54.8606 50.7864 55.0118C50.5485 55.1203 50.29 55.1763 50.0284 55.1762ZM46.628 47.6088L47.8189 50.992H45.4371L46.628 47.6088ZM52.987 55.0178C52.3568 55.0178 51.8444 54.5274 51.8444 53.9248V45.8271C51.8444 45.1695 52.3904 44.6348 53.0615 44.6348C53.7325 44.6348 54.2787 45.1695 54.2787 45.8271V52.8318H56.8123C57.4425 52.8318 57.955 53.3223 57.955 53.9248C57.955 54.5274 57.4425 55.0178 56.8123 55.0178H52.987ZM58.4187 53.9838C58.4187 54.6414 58.9535 55.1762 59.611 55.1762C59.9272 55.1757 60.2304 55.0499 60.454 54.8263C60.6776 54.6027 60.8034 54.2995 60.8038 53.9832V51.3818L61.2175 50.9681L64.0137 54.673C64.1244 54.8208 64.2681 54.9407 64.4336 55.0231C64.5989 55.1054 64.7813 55.1478 64.966 55.147C65.2251 55.1475 65.4771 55.063 65.6833 54.9062C65.8086 54.8123 65.914 54.6945 65.9934 54.5595C66.0727 54.4246 66.1247 54.2751 66.1458 54.12C66.1682 53.9649 66.1594 53.807 66.12 53.6554C66.0807 53.5037 66.0118 53.3614 65.917 53.2366L62.982 49.3486L65.6992 46.6318C65.886 46.4449 65.9796 46.1871 65.9623 45.9059C65.9451 45.6272 65.8206 45.3587 65.6117 45.15C65.3878 44.9263 65.0889 44.7979 64.7913 44.7979C64.536 44.7979 64.301 44.8921 64.1299 45.0632L60.8034 48.3898V45.8271C60.8034 45.1695 60.2686 44.6348 59.611 44.6348C58.9535 44.6348 58.4187 45.1695 58.4187 45.8271V53.9838Z" fill="#FFE812"/>
</svg>
