<svg width="46" height="18" viewBox="0 0 46 18" fill="none" xmlns="http://www.w3.org/2000/svg">
<path fill-rule="evenodd" clip-rule="evenodd" d="M24.4881 5.07019V8.88319H26.5081C27.9881 8.88319 28.7281 8.27119 28.7281 7.04819V6.79219C28.7281 6.20419 28.5501 5.77019 28.1941 5.49019C27.8381 5.21019 27.3291 5.07019 26.6641 5.07019H24.4881ZM23.0801 3.84619H26.7431C27.3201 3.84619 27.8221 3.92019 28.2481 4.06719C28.6741 4.21419 29.0261 4.41819 29.3051 4.67919C29.5851 4.93919 29.7931 5.25019 29.9301 5.61119C30.0671 5.97119 30.1361 6.36119 30.1361 6.77719V7.07719C30.1361 7.49419 30.0631 7.88519 29.9161 8.25019C29.7691 8.61519 29.5541 8.93519 29.2701 9.21019C28.9861 9.48619 28.6341 9.70419 28.2131 9.86519C27.7931 10.0262 27.3031 10.1072 26.7441 10.1072H24.4881V14.1052H23.0801V3.84619ZM35.9971 10.5622H34.0481C33.5081 10.5622 33.1211 10.6672 32.8881 10.8752C32.6561 11.0842 32.5401 11.3732 32.5401 11.7432V11.9422C32.5401 12.3222 32.6731 12.5972 32.9381 12.7672C33.2041 12.9382 33.5221 13.0242 33.8921 13.0242C34.2321 13.0242 34.5291 12.9842 34.7811 12.9032C35.0311 12.8222 35.2621 12.7012 35.4711 12.5402C35.6611 12.3972 35.7961 12.2342 35.8761 12.0492C35.9561 11.8642 35.9971 11.6252 35.9971 11.3302V10.5622V10.5622ZM33.7491 14.2182C32.9621 14.2182 32.3391 14.0242 31.8791 13.6352C31.4191 13.2462 31.1891 12.7112 31.1891 12.0282V11.6432C31.1891 10.9802 31.4111 10.4392 31.8571 10.0212C32.3031 9.60419 33.0241 9.39519 34.0201 9.39519H35.9971V8.94019C35.9971 8.41919 35.8711 8.03219 35.6201 7.78019C35.3691 7.53019 34.9591 7.40419 34.3901 7.40419C33.9341 7.40419 33.5381 7.47419 33.2021 7.61719C32.8651 7.75919 32.5161 7.94919 32.1561 8.18619L31.4731 7.16219C31.8531 6.89619 32.2791 6.66619 32.7531 6.47219C33.2281 6.27719 33.7781 6.18019 34.4031 6.18019C34.8401 6.18019 35.2381 6.23519 35.5991 6.34319C35.9591 6.45319 36.2691 6.61419 36.5311 6.82719C36.7911 7.04119 36.9951 7.30219 37.1421 7.61019C37.2901 7.91819 37.3631 8.26719 37.3631 8.65619V14.1052H36.0401V13.1652H36.0261C35.9501 13.3082 35.8481 13.4382 35.7201 13.5572C35.5921 13.6762 35.4521 13.7772 35.3001 13.8632C35.0911 13.9772 34.8661 14.0642 34.6241 14.1262C34.3821 14.1882 34.0911 14.2182 33.7491 14.2182V14.2182ZM42.1721 12.5402L44.2201 6.32219H45.6721L41.6311 17.3202L40.3791 16.8792L41.3891 14.2182L38.5581 6.32219H40.0521L42.1151 12.5402H42.1721Z" fill="#424242"/>
<path fill-rule="evenodd" clip-rule="evenodd" d="M0 17.951H17.951V0H0V17.951Z" fill="#00C73C"/>
<path fill-rule="evenodd" clip-rule="evenodd" d="M10.4023 13.0842L7.50633 8.83119V13.0842H4.48633V4.86719H7.54833L10.4443 9.12019V4.86719H13.4623V13.0842H10.4023Z" fill="white"/>
</svg>
