<svg width="54" height="16" viewBox="0 0 54 16" fill="none" xmlns="http://www.w3.org/2000/svg">
<g clip-path="url(#clip0_6_2)">
<path fill-rule="evenodd" clip-rule="evenodd" d="M8.23538 0C3.68524 0 0 2.82353 0 6.26244C0 8.50679 1.54178 10.4615 3.83565 11.5837L3.04596 14.371C3.00836 14.4434 3.04596 14.552 3.12117 14.6244C3.15877 14.6606 3.23398 14.6968 3.27159 14.6968C3.30919 14.6968 3.3844 14.6606 3.42201 14.6606L6.7688 12.4887C7.25766 12.5611 7.74652 12.5973 8.27298 12.5973C12.8231 12.5973 16.5084 9.77376 16.5084 6.33484C16.5084 2.82353 12.8231 0 8.23538 0Z" fill="black"/>
<path d="M23.4652 11.4751V15.5294H20.4568V0.579179H22.5627L22.9387 1.52036C23.578 0.904971 24.5557 0.253387 26.0975 0.253387C29.0306 0.253387 30.422 2.35294 30.422 5.79185C30.422 9.37556 28.2785 11.6561 25.195 11.6561C24.5933 11.6923 24.1421 11.6561 23.4652 11.4751ZM23.4652 3.00452V9.44796C23.6156 9.48416 24.0292 9.52036 24.4429 9.52036C26.5863 9.52036 27.4136 8.07239 27.4136 5.79185C27.4136 3.8009 26.8496 2.60633 25.1574 2.60633C24.5557 2.60633 23.954 2.78732 23.4652 3.00452Z" fill="black"/>
<path d="M36.9276 4.81448H38.6198V4.45249C38.6198 3.25792 37.9053 2.71493 36.7019 2.71493C35.7618 2.71493 34.5961 2.96832 33.6184 3.43891L32.7911 1.52036C33.844 0.796379 35.4986 0.32579 36.9652 0.32579C39.8231 0.32579 41.4025 1.77375 41.4025 4.56108V11.4027H39.2967L38.9958 10.4977C37.7925 11.3303 36.6643 11.6923 35.6866 11.6923C33.5056 11.6923 32.2646 10.4253 32.2646 8.28959C32.2646 6.00905 33.8816 4.81448 36.9276 4.81448ZM38.6198 8.61538V6.62443H37.2284C35.6866 6.62443 34.8969 7.16742 34.8969 8.21719C34.8969 9.01357 35.3106 9.41176 36.2131 9.41176C37.078 9.44796 38.1309 9.04977 38.6198 8.61538Z" fill="black"/>
<path d="M50.5028 10.2805C49.4499 12.9593 48.2089 14.914 46.3663 16L44.5237 14.371C45.5766 13.4661 46.3663 12.5973 47.0056 11.4389L43.0195 0.97738L45.9902 0.217199L48.5474 8.68779L51.0669 0.181L54 0.97738L50.5028 10.2805Z" fill="black"/>
</g>
<defs>
<clipPath id="clip0_6_2">
<rect width="54" height="16" fill="white"/>
</clipPath>
</defs>
</svg>
