<svg width="58" height="58" viewBox="0 0 58 58" fill="none" xmlns="http://www.w3.org/2000/svg">
<path d="M58 29C58 45.0272 45.0093 58 29 58C12.9907 58 0 45.0093 0 29C0 12.9907 12.9907 0 29 0C45.0272 0 58 12.9907 58 29Z" fill="#23B909"/>
<g clip-path="url(#clip0_144_300)">
<path d="M39.3208 25.5465H18.3118C18.2716 25.5445 18.2314 25.5507 18.1936 25.5648C18.1558 25.5789 18.1213 25.6006 18.0922 25.6286C18.063 25.6566 18.0398 25.6903 18.0239 25.7276C18.0081 25.7649 17.9999 25.805 18 25.8456V31.5293C18 31.5293 18.193 40.9911 27.5023 40.9911C34.5429 40.9911 36.3781 35.6066 36.8502 32.9532H39.3089C39.8011 32.9673 40.2911 32.8818 40.7498 32.7018C41.2086 32.5218 41.6269 32.2509 41.9799 31.9052C42.333 31.5595 42.6136 31.146 42.8053 30.6891C42.9969 30.2323 43.0957 29.7413 43.0957 29.2453C43.0957 28.7494 42.9969 28.2584 42.8053 27.8016C42.6136 27.3447 42.333 26.9312 41.9799 26.5855C41.6269 26.2398 41.2086 25.9689 40.7498 25.7889C40.2911 25.6089 39.8011 25.5234 39.3089 25.5375L39.3208 25.5465ZM39.2377 31.0357C38.8853 31.0357 38.5408 30.9304 38.2478 30.7332C37.9548 30.536 37.7265 30.2557 37.5916 29.9277C37.4568 29.5998 37.4215 29.2389 37.4902 28.8907C37.559 28.5425 37.7287 28.2227 37.9778 27.9717C38.227 27.7207 38.5445 27.5498 38.8901 27.4805C39.2357 27.4113 39.5939 27.4468 39.9195 27.5826C40.2451 27.7185 40.5233 27.9485 40.7191 28.2437C40.9149 28.5389 41.0194 28.8859 41.0194 29.2409C41.0194 29.4766 40.9733 29.71 40.8837 29.9277C40.7942 30.1455 40.663 30.3433 40.4975 30.51C40.3321 30.6767 40.1357 30.8089 39.9195 30.8991C39.7033 30.9893 39.4717 31.0357 39.2377 31.0357Z" fill="white"/>
<path d="M23.4927 23.0934H29.7761C29.8236 23.0934 34.6876 22.2917 34.7707 17.32C34.7731 17.2793 34.7673 17.2384 34.7534 17.2C34.7396 17.1616 34.7181 17.1265 34.6903 17.0968C34.6625 17.0671 34.6289 17.0434 34.5917 17.0273C34.5544 17.0111 34.5143 17.0029 34.4738 17.0029H28.5556C28.5111 17.0029 23.6025 17.7717 23.1868 22.7554C23.1829 22.7985 23.1883 22.8419 23.2026 22.8827C23.217 22.9235 23.2399 22.9607 23.2699 22.9917C23.2978 23.0236 23.332 23.0492 23.3704 23.0667C23.4088 23.0843 23.4505 23.0934 23.4927 23.0934Z" fill="white"/>
</g>
<defs>
<clipPath id="clip0_144_300">
<rect width="25" height="24" fill="white" transform="translate(18 17)"/>
</clipPath>
</defs>
</svg>
