<svg width="58" height="58" viewBox="0 0 58 58" fill="none" xmlns="http://www.w3.org/2000/svg">
<path d="M58 29C58 45.0272 45.0093 58 29 58C12.9907 58 0 45.0093 0 29C0 12.9907 12.9907 0 29 0C45.0272 0 58 12.9907 58 29Z" fill="url(#paint0_linear_138_403)"/>
<g clip-path="url(#clip0_138_403)">
<path d="M29 18.343C32.4732 18.343 32.8809 18.3585 34.2537 18.4204C35.5232 18.4772 36.2096 18.6888 36.6689 18.8694C37.2779 19.1068 37.7114 19.3855 38.1656 19.8396C38.6197 20.2938 38.9036 20.7273 39.1358 21.3362C39.3113 21.7956 39.528 22.4819 39.5848 23.7515C39.6467 25.1243 39.6622 25.532 39.6622 29.0052C39.6622 32.4784 39.6467 32.8861 39.5848 34.2588C39.528 35.5284 39.3164 36.2148 39.1358 36.6741C38.8984 37.2831 38.6197 37.7166 38.1656 38.1707C37.7114 38.6249 37.2779 38.9087 36.6689 39.1409C36.2096 39.3164 35.5232 39.5331 34.2537 39.5899C32.8809 39.6518 32.4732 39.6673 29 39.6673C25.5268 39.6673 25.1191 39.6518 23.7463 39.5899C22.4768 39.5331 21.7904 39.3216 21.3311 39.1409C20.7221 38.9035 20.2886 38.6249 19.8345 38.1707C19.3803 37.7166 19.0965 37.2831 18.8642 36.6741C18.6888 36.2148 18.472 35.5284 18.4152 34.2588C18.3533 32.8861 18.3378 32.4784 18.3378 29.0052C18.3378 25.532 18.3533 25.1243 18.4152 23.7515C18.472 22.4819 18.6836 21.7956 18.8642 21.3362C19.1016 20.7273 19.3803 20.2938 19.8345 19.8396C20.2886 19.3855 20.7221 19.1016 21.3311 18.8694C21.7904 18.6939 22.4768 18.4772 23.7463 18.4204C25.1191 18.3533 25.532 18.343 29 18.343ZM29 16C25.47 16 25.0262 16.0155 23.638 16.0774C22.2549 16.1393 21.3104 16.3613 20.4847 16.6812C19.628 17.0115 18.9055 17.4605 18.183 18.183C17.4605 18.9055 17.0167 19.6332 16.6812 20.4847C16.3613 21.3104 16.1393 22.2549 16.0774 23.6431C16.0155 25.0262 16 25.47 16 29C16 32.53 16.0155 32.9738 16.0774 34.362C16.1393 35.7451 16.3613 36.6896 16.6812 37.5204C17.0115 38.3771 17.4605 39.0996 18.183 39.8222C18.9055 40.5447 19.6332 40.9885 20.4847 41.3239C21.3104 41.6439 22.2549 41.8658 23.6431 41.9278C25.0314 41.9897 25.47 42.0052 29.0052 42.0052C32.5403 42.0052 32.979 41.9897 34.3672 41.9278C35.7503 41.8658 36.6947 41.6439 37.5256 41.3239C38.3823 40.9937 39.1048 40.5447 39.8273 39.8222C40.5498 39.0996 40.9937 38.372 41.3291 37.5204C41.6491 36.6947 41.871 35.7503 41.9329 34.362C41.9949 32.9738 42.0103 32.5351 42.0103 29C42.0103 25.4649 41.9949 25.0262 41.9329 23.638C41.871 22.2549 41.6491 21.3104 41.3291 20.4796C40.9988 19.6229 40.5498 18.9004 39.8273 18.1778C39.1048 17.4553 38.3772 17.0115 37.5256 16.6761C36.6999 16.3561 35.7555 16.1342 34.3672 16.0723C32.9738 16.0155 32.53 16 29 16Z" fill="white"/>
<path d="M29.0003 22.327C25.3155 22.327 22.3223 25.3151 22.3223 29.0051C22.3223 32.695 25.3104 35.6831 29.0003 35.6831C32.6903 35.6831 35.6784 32.695 35.6784 29.0051C35.6784 25.3151 32.6903 22.327 29.0003 22.327ZM29.0003 33.335C26.6057 33.335 24.6653 31.3945 24.6653 28.9999C24.6653 26.6053 26.6057 24.6649 29.0003 24.6649C31.3949 24.6649 33.3354 26.6053 33.3354 28.9999C33.3354 31.3945 31.3949 33.335 29.0003 33.335Z" fill="white"/>
<path d="M35.9414 23.6174C36.8021 23.6174 37.4999 22.9196 37.4999 22.0588C37.4999 21.198 36.8021 20.5002 35.9414 20.5002C35.0806 20.5002 34.3828 21.198 34.3828 22.0588C34.3828 22.9196 35.0806 23.6174 35.9414 23.6174Z" fill="white"/>
</g>
<defs>
<linearGradient id="paint0_linear_138_403" x1="47.5" y1="-1.11527e-06" x2="13" y2="58" gradientUnits="userSpaceOnUse">
<stop stop-color="#7737FA"/>
<stop offset="0.53125" stop-color="#FE2848"/>
<stop offset="1" stop-color="#FFB700"/>
</linearGradient>
<clipPath id="clip0_138_403">
<rect width="26" height="26" fill="white" transform="translate(16 16)"/>
</clipPath>
</defs>
</svg>
