<svg width="58" height="58" viewBox="0 0 58 58" fill="none" xmlns="http://www.w3.org/2000/svg">
<path d="M58 29C58 45.0272 45.0093 58 29 58C12.9907 58 0 45.0093 0 29C0 12.9907 12.9907 0 29 0C45.0272 0 58 12.9907 58 29Z" fill="#2AA8E0"/>
<path fill-rule="evenodd" clip-rule="evenodd" d="M34.6303 33.3472C32.7677 33.202 30.8921 33.3604 29.0035 33.202C28.1047 33.0965 27.3624 32.2916 27.2061 31.4076C27.0888 30.4972 27.1409 29.5736 27.1018 28.6368C29.6027 28.5972 32.1035 28.7555 34.5913 28.5576C35.8026 28.3597 36.7274 26.9347 36.3757 25.7208C36.2585 24.7576 35.4119 24.0187 34.5001 23.8604C32.0644 23.7416 29.6157 23.8472 27.18 23.834C27.167 22.8576 27.1669 21.868 27.0758 20.8916C26.8934 19.6513 25.4867 18.7937 24.3144 19.1368C23.0249 19.3347 22.2044 20.7597 22.3998 22.0131C22.3998 25.0479 22.3346 28.0958 22.4258 31.1173C22.4128 34.0861 24.5228 36.8833 27.3102 37.7409C29.1598 38.3215 31.1135 38.0576 33.0152 38.084C34.0442 38.084 35.3597 38.1236 35.9459 37.0548C37.053 35.8409 36.2454 33.5979 34.6303 33.3472Z" fill="white"/>
</svg>
