<svg width="101" height="101" viewBox="0 0 101 101" fill="none" xmlns="http://www.w3.org/2000/svg">
<path d="M50.5 101C78.3904 101 101 78.3904 101 50.5C101 22.6096 78.3904 0 50.5 0C22.6096 0 0 22.6096 0 50.5C0 78.3904 22.6096 101 50.5 101Z" fill="#F1F1F1"/>
<path d="M80.668 29V45C80.6681 45.7871 80.3589 46.5426 79.807 47.1038C79.2552 47.665 78.5049 47.9869 77.718 48H61.538L55.328 53.52C55.1836 53.6468 55.0057 53.7294 54.8157 53.7578C54.6256 53.7861 54.4314 53.7592 54.2562 53.68C54.0811 53.6009 53.9325 53.473 53.8282 53.3116C53.7238 53.1502 53.6682 52.9622 53.668 52.77V48H51.668C50.8723 48 50.1093 47.6839 49.5466 47.1213C48.984 46.5587 48.668 45.7956 48.668 45V29C48.668 28.2044 48.984 27.4413 49.5466 26.8787C50.1093 26.3161 50.8723 26 51.668 26H77.668C78.4636 26 79.2267 26.3161 79.7893 26.8787C80.3519 27.4413 80.668 28.2044 80.668 29Z" fill="white" stroke="#222222" stroke-width="2" stroke-miterlimit="10"/>
<path d="M60.4888 64.3898C57.0621 61.3966 52.7792 59.5595 48.2487 59.1398C46.7046 60.4523 45.3246 61.9464 44.1387 63.5898C41.8687 62.6898 39.3187 60.0898 37.0287 57.3098C34.7387 54.5298 32.6788 51.5198 32.2388 49.1198C34.0832 48.2764 35.8163 47.2083 37.3987 45.9398C37.8594 41.4209 36.8831 36.8717 34.6087 32.9398C32.2487 32.4098 26.6087 32.2398 22.6087 33.9398C21.1987 38.9398 21.5287 49.3798 31.4687 61.9398C41.8187 74.0998 52.0187 76.4498 57.1787 76.0198C59.6687 72.3598 60.5388 66.7998 60.4888 64.3898Z" fill="#FFE812" stroke="#222222" stroke-width="2" stroke-miterlimit="10"/>
<path d="M59.668 37H61.668" stroke="#222222" stroke-width="2" stroke-miterlimit="10"/>
<path d="M63.668 37H65.668" stroke="#222222" stroke-width="2" stroke-miterlimit="10"/>
<path d="M67.668 37H69.668" stroke="#222222" stroke-width="2" stroke-miterlimit="10"/>
</svg>
