<svg width="58" height="58" viewBox="0 0 58 58" fill="none" xmlns="http://www.w3.org/2000/svg">
<path d="M57.5 29C57.5 44.7509 44.7333 57.5 29 57.5C13.2668 57.5 0.5 44.7331 0.5 29C0.5 13.2668 13.2668 0.5 29 0.5C44.7509 0.5 57.5 13.2666 57.5 29Z" fill="white" stroke="#E6E6E6"/>
<path d="M41.4297 29.2575C41.4297 28.3038 41.3507 27.6078 41.1798 26.886H30.0664V31.1908H36.5897C36.4582 32.2606 35.748 33.8718 34.1698 34.9544L34.1477 35.0985L37.6615 37.7662L37.9049 37.79C40.1407 35.7664 41.4297 32.7891 41.4297 29.2575Z" fill="#4285F4"/>
<path d="M30.0663 40.5999C33.2622 40.5999 35.9451 39.5688 37.9048 37.7901L34.1697 34.9545C33.1702 35.6376 31.8286 36.1145 30.0663 36.1145C26.9362 36.1145 24.2795 34.091 23.3325 31.2941L23.1937 31.3056L19.54 34.0768L19.4922 34.2069C21.4386 37.9963 25.4368 40.5999 30.0663 40.5999Z" fill="#34A853"/>
<path d="M23.3334 31.2941C23.0835 30.5724 22.9389 29.799 22.9389 28.9999C22.9389 28.2007 23.0835 27.4274 23.3202 26.7057L23.3136 26.552L19.6141 23.7363L19.493 23.7928C18.6908 25.3652 18.2305 27.131 18.2305 28.9999C18.2305 30.8688 18.6908 32.6345 19.493 34.207L23.3334 31.2941Z" fill="#FBBC05"/>
<path d="M30.0664 21.8852C32.289 21.8852 33.7883 22.8261 34.6432 23.6124L37.9838 20.4159C35.9322 18.547 33.2623 17.3999 30.0664 17.3999C25.4369 17.3999 21.4387 20.0034 19.4922 23.7927L23.3194 26.7057C24.2796 23.9088 26.9362 21.8852 30.0664 21.8852Z" fill="#EB4335"/>
</svg>
