<svg width="70" height="70" viewBox="0 0 70 70" fill="none" xmlns="http://www.w3.org/2000/svg">
<circle cx="35" cy="35" r="35" fill="#23B909"/>
<g clip-path="url(#clip0_145_305)">
<path d="M48.3201 26.3969L45.7132 23.9966C45.4266 23.6807 45.0766 23.4287 44.6861 23.257C44.2956 23.0853 43.8733 22.9977 43.4467 23H26.0979C25.276 23 24.4877 23.3266 23.9065 23.9077C23.3253 24.4889 22.9988 25.2772 22.9988 26.0991V45.2405C22.9701 45.6666 23.0741 46.0912 23.2966 46.4558C23.3632 46.5518 23.4453 46.636 23.5397 46.7049L26.0068 48.9898C26.0443 49.0293 26.085 49.0659 26.1283 49.0991L26.2559 49.1842C26.4076 49.2636 26.5769 49.3033 26.7481 49.2997C27.0859 49.2818 27.412 49.1703 27.69 48.9776L30.6007 46.0001C31.2083 45.2526 32.8794 45.0886 33.4688 45.0825H46.0596C46.4671 45.0833 46.8707 45.0037 47.2474 44.8483C47.6241 44.6929 47.9665 44.4648 48.2549 44.1769C48.5433 43.8891 48.7722 43.5472 48.9283 43.1708C49.0844 42.7944 49.1648 42.3909 49.1648 41.9834V28.5237C49.1712 27.7318 48.8681 26.9686 48.3201 26.3969V26.3969ZM45.5188 26.4576V39.571C45.5188 40.1189 45.3011 40.6445 44.9137 41.0319C44.5262 41.4194 44.0007 41.637 43.4527 41.637H30.8681C30.6068 41.637 28.243 41.6735 27.2221 42.8949L26.6144 43.5026L25.5814 44.5599L24.4268 45.7448C24.3322 45.8078 24.2238 45.8474 24.1109 45.8603V45.8603C24.1109 45.8603 23.9954 45.7509 23.9954 45.2526V26.093C23.9954 25.5451 24.2131 25.0196 24.6005 24.6321C24.988 24.2447 25.5135 24.027 26.0614 24.027H43.4527C43.8823 24.0274 44.3009 24.1624 44.6498 24.4131C44.9986 24.6638 45.26 25.0176 45.3973 25.4246C45.4755 25.6389 45.5166 25.8649 45.5188 26.093V26.4576Z" fill="white"/>
<path d="M29.8169 29.4777C29.6132 29.4777 29.4115 29.518 29.2235 29.5963C29.0354 29.6746 28.8647 29.7894 28.7212 29.934C28.5778 30.0786 28.4643 30.2502 28.3875 30.4389C28.3106 30.6276 28.2719 30.8296 28.2735 31.0333V34.2782C28.2982 34.6716 28.4718 35.0408 28.7591 35.3107C29.0465 35.5805 29.4258 35.7307 29.82 35.7307C30.2142 35.7307 30.5935 35.5805 30.8808 35.3107C31.1681 35.0408 31.3418 34.6716 31.3665 34.2782V31.0333C31.3673 30.8293 31.3278 30.6271 31.2503 30.4384C31.1728 30.2497 31.0588 30.0782 30.9148 29.9337C30.7708 29.7891 30.5997 29.6744 30.4113 29.5962C30.2229 29.5179 30.0209 29.4777 29.8169 29.4777Z" fill="white"/>
<path d="M39.4419 29.4777C39.2382 29.4777 39.0365 29.518 38.8485 29.5963C38.6604 29.6746 38.4897 29.7894 38.3462 29.934C38.2028 30.0786 38.0893 30.2502 38.0125 30.4389C37.9356 30.6276 37.8969 30.8296 37.8985 31.0333V34.2782C37.8985 34.4809 37.9384 34.6816 38.016 34.8688C38.0935 35.0561 38.2072 35.2263 38.3506 35.3696C38.4939 35.5129 38.664 35.6266 38.8513 35.7042C39.0386 35.7817 39.2393 35.8217 39.4419 35.8217C39.6446 35.8217 39.8453 35.7817 40.0326 35.7042C40.2199 35.6266 40.39 35.5129 40.5333 35.3696C40.6767 35.2263 40.7904 35.0561 40.8679 34.8688C40.9455 34.6816 40.9854 34.4809 40.9854 34.2782V31.0333C40.987 30.8296 40.9483 30.6276 40.8714 30.4389C40.7946 30.2502 40.6811 30.0786 40.5377 29.934C40.3942 29.7894 40.2235 29.6746 40.0354 29.5963C39.8474 29.518 39.6457 29.4777 39.4419 29.4777V29.4777Z" fill="white"/>
</g>
<defs>
<clipPath id="clip0_145_305">
<rect width="26.1902" height="26.33" fill="white" transform="translate(23 23)"/>
</clipPath>
</defs>
</svg>
